<svg width="1024" height="1024" viewBox="0 0 1024 1024" fill="none" xmlns="http://www.w3.org/2000/svg">
<g clip-path="url(#clip0_327_864)">
<path d="M405.778 57C352.622 57 308.533 93.4444 295.911 142.689C294.489 142.689 293.422 142.333 292 142.333C229.244 142.333 178.222 193.356 178.222 256.111C178.222 264.644 179.289 273 181.244 281C129.333 302.333 92.8889 353.178 92.8889 412.556C92.8889 434.956 98.5778 455.756 107.644 474.6C64.9778 499.133 36 544.644 36 597.444C36 656.644 72.2667 707.489 123.822 728.822C122.222 737 121.333 745.356 121.333 753.889C121.333 824.644 178.578 881.889 249.333 881.889C256.622 881.889 263.733 881 270.667 879.755C287.733 930.422 335.022 967.222 391.556 967.222C462.311 967.222 519.556 909.978 519.556 839.222V170.778C519.556 108.022 468.533 57 405.778 57Z" fill="url(#paint0_linear_327_864)"/>
<path d="M618.778 57C671.933 57 716.022 93.4444 728.645 142.689C730.067 142.689 731.133 142.333 732.556 142.333C795.311 142.333 846.333 193.356 846.333 256.111C846.333 264.644 845.267 273 843.311 281C895.222 302.333 931.667 353.178 931.667 412.556C931.667 434.956 925.978 455.756 916.911 474.6C959.578 499.133 988.556 544.644 988.556 597.444C988.556 656.644 952.289 707.489 900.733 728.822C902.333 737 903.222 745.356 903.222 753.889C903.222 824.644 845.978 881.889 775.222 881.889C767.933 881.889 760.822 881 753.889 879.755C736.822 930.422 689.533 967.222 633 967.222C562.245 967.222 505 909.978 505 839.222V170.778C505 108.022 556.022 57 618.778 57Z" fill="url(#paint1_linear_327_864)"/>
<path d="M617.1 466.7H549.2V774H449.8V466.7H405.7V386.2H449.8V366.6C449.8 319 463.333 284 490.4 261.6C517.467 239.2 558.3 228.7 612.9 230.1V312.7C589.1 312.233 572.533 316.2 563.2 324.6C553.867 333 549.2 348.167 549.2 370.1V386.2H617.1V466.7Z" fill="white"/>
</g>
<defs>
<linearGradient id="paint0_linear_327_864" x1="476.5" y1="66.8889" x2="476.5" y2="977.111" gradientUnits="userSpaceOnUse">
<stop stop-color="#A2C9FE"/>
<stop offset="1" stop-color="#3C2947"/>
</linearGradient>
<linearGradient id="paint1_linear_327_864" x1="548.056" y1="66.8889" x2="548.056" y2="977.111" gradientUnits="userSpaceOnUse">
<stop stop-color="#A2C9FE"/>
<stop offset="1" stop-color="#3C2947"/>
</linearGradient>
<clipPath id="clip0_327_864">
<rect width="1024" height="1024" fill="white"/>
</clipPath>
</defs>
</svg>
